HIERARCHY
ROOT Hips
{
	OFFSET 0.000000 8.830580 0.000000
	CHANNELS 6 Xposition Yposition Zposition Zrotation Yrotation Xrotation 
	JOINT Spine
	{
		OFFSET 0.000000 0.010000 0.000000
		CHANNELS 3 Zrotation Yrotation Xrotation
		JOINT Spine1
		{
			OFFSET 0.000000 2.459130 0.000000
			CHANNELS 3 Zrotation Yrotation Xrotation
			JOINT Neck
			{
				OFFSET 0.000000 2.484630 0.000000
				CHANNELS 3 Zrotation Yrotation Xrotation
				JOINT Head_virtual
				{
					OFFSET 0.000000 0.000000 0.000000
					CHANNELS 3 Zrotation Yrotation Xrotation
					JOINT Head
					{
						OFFSET 0.000000 0.927525 0.000000
						CHANNELS 3 Zrotation Yrotation Xrotation
						End Site
						{
							OFFSET 0.000000 0.000000 0.000000
						}
					}
				}
				JOINT LeftUpArm_virtual
				{
					OFFSET 0.000000 0.000000 0.000000
					CHANNELS 3 Zrotation Yrotation Xrotation
					JOINT LeftUpArm
					{
						OFFSET 1.248820 0.000000 0.000000
						CHANNELS 3 Zrotation Yrotation Xrotation
						JOINT LeftForeArm
						{
							OFFSET 2.597580 0.000000 0.000000
							CHANNELS 3 Zrotation Yrotation Xrotation
							JOINT LeftHand
							{
								OFFSET 2.455420 0.000000 0.000000
								CHANNELS 3 Zrotation Yrotation Xrotation
								End Site
								{
									OFFSET 0.000000 0.000000 0.000000
								}
							}
						}
					}
				}
				JOINT RightUpArm_virtual
				{
					OFFSET -0.000000 -0.000000 -0.000000
					CHANNELS 3 Zrotation Yrotation Xrotation
					JOINT RightUpArm
					{
						OFFSET -1.248820 -0.000000 -0.000000
						CHANNELS 3 Zrotation Yrotation Xrotation
						JOINT RightForeArm
						{
							OFFSET -2.597580 -0.000000 -0.000000
							CHANNELS 3 Zrotation Yrotation Xrotation
							JOINT RightHand
							{
								OFFSET -2.455420 -0.000000 -0.000000
								CHANNELS 3 Zrotation Yrotation Xrotation
								End Site
								{
									OFFSET 0.000000 0.000000 0.000000
								}
							}
						}
					}
				}
			}
		}
	}
	JOINT LeftUpLeg
	{
		OFFSET 1.271939 0.000000 0.000000
		CHANNELS 3 Zrotation Yrotation Xrotation
		JOINT LeftLowLeg
		{
			OFFSET 0.000000 -4.342910 0.000000
			CHANNELS 3 Zrotation Yrotation Xrotation
			JOINT LeftFoot
			{
				OFFSET 0.000000 -4.487670 0.000000
				CHANNELS 3 Zrotation Yrotation Xrotation
				JOINT LeftToeBase
				{
					OFFSET 0.000000 0.000000 1.515070
					CHANNELS 3 Zrotation Yrotation Xrotation
					End Site
					{
						OFFSET 0.000000 0.000000 0.000000
					}
				}
			}
		}
	}
	JOINT RightUpLeg
	{
		OFFSET -1.271939 0.000000 0.000000
		CHANNELS 3 Zrotation Yrotation Xrotation
		JOINT RightLowLeg
		{
			OFFSET 0.000000 -4.342910 0.000000
			CHANNELS 3 Zrotation Yrotation Xrotation
			JOINT RightFoot
			{
				OFFSET 0.000000 -4.487670 0.000000
				CHANNELS 3 Zrotation Yrotation Xrotation
				JOINT RightToeBase
				{
					OFFSET 0.000000 0.000000 1.515070
					CHANNELS 3 Zrotation Yrotation Xrotation
					End Site
					{
						OFFSET 0.000000 0.000000 0.000000
					}
				}
			}
		}
	}
}
MOTION
Frames: 7
Frame Time: 0.041667
-19.294606 9.245741 40.027459 -175.159453 0.584194 -175.121255 2.538214 -1.185307 -6.447736 0.544869 -1.359612 3.920256 0.000000 0.000000 0.000000 -4.121475 0.340618 -12.540812 7.997545 6.383534 -53.641951 2.111330 14.976400 -5.545050 -10.534100 -3.922170 -26.393400 0.000000 -21.689600 0.000000 32.855900 4.515540 22.771299 6.876180 -12.661200 -0.550186 4.308440 3.131930 -33.660500 0.000000 21.145201 0.000000 -19.035999 -1.510760 28.329000 2.762468 0.998706 -3.553821 0.000000 0.000000 7.269900 11.348986 0.320432 7.675741 0.000000 0.000000 -37.248699 4.113943 7.976653 -2.419776 0.000000 0.000000 7.619900 7.025967 -7.123448 10.092457 0.000000 0.000000 -27.930900 
-19.295006 9.245680 40.026201 -175.157404 0.592870 -175.113299 2.533270 -1.189408 -6.465969 0.561121 -1.362434 3.915149 0.000000 0.000000 0.000000 -4.137492 0.327123 -12.484954 7.974751 6.364193 -53.609912 2.100160 14.972200 -5.558260 -10.593600 -3.942500 -26.449900 0.000000 -21.713699 0.000000 32.853100 4.565340 22.852900 6.878950 -12.644600 -0.557280 4.339080 3.101010 -33.685200 0.000000 21.197800 0.000000 -19.017000 -1.535580 28.304899 2.762197 0.972421 -3.545771 0.000000 0.000000 7.258240 11.337318 0.347275 7.678172 0.000000 0.000000 -37.260200 4.113590 7.996671 -2.410271 0.000000 0.000000 7.600900 7.034200 -7.136353 10.091051 0.000000 0.000000 -27.934200 
-19.295565 9.245589 40.024657 -175.153977 0.604518 -175.106389 2.538464 -1.190739 -6.486987 0.563746 -1.364557 3.922314 0.000000 0.000000 0.000000 -4.147069 0.323942 -12.442364 7.935037 6.365252 -53.589827 2.079070 14.962300 -5.549080 -10.618200 -3.928230 -26.488501 0.000000 -21.730499 0.000000 32.797100 4.533940 22.836700 6.883970 -12.646300 -0.563543 4.375870 3.094740 -33.665199 0.000000 21.251600 0.000000 -19.221500 -1.628870 28.540001 2.761387 0.971642 -3.536279 0.000000 0.000000 7.250260 11.339276 0.361352 7.671944 0.000000 0.000000 -37.251499 4.112403 8.026466 -2.399722 0.000000 0.000000 7.585690 7.045050 -7.147853 10.087235 0.000000 0.000000 -27.923900 
-19.296273 9.245663 40.023260 -175.155543 0.616850 -175.082987 2.579321 -1.244660 -6.415040 0.495564 -1.425684 3.711671 0.000000 0.000000 0.000000 -4.211600 0.394873 -12.309656 7.921101 6.422071 -53.574947 2.132750 15.086400 -5.438250 -10.671500 -3.936790 -26.479700 0.000000 -21.766701 0.000000 32.840199 4.586820 22.748800 6.928660 -12.560000 -0.438689 4.354140 3.123050 -33.700699 0.000000 21.238501 0.000000 -19.233700 -1.581940 28.482100 2.753289 1.020551 -3.556755 0.000000 0.000000 7.266260 11.355894 0.337669 7.656644 0.000000 0.000000 -37.254801 4.103806 8.008166 -2.407723 0.000000 0.000000 7.569440 7.037167 -7.127603 10.092983 0.000000 0.000000 -27.922500 
-19.296813 9.245505 40.022305 -175.154560 0.630761 -175.081778 2.571613 -1.249297 -6.436816 0.520859 -1.428654 3.745146 0.000000 0.000000 0.000000 -4.237440 0.406682 -12.315596 7.903725 6.419974 -53.553763 2.101700 15.079900 -5.443630 -10.662800 -3.919340 -26.417700 0.000000 -21.736401 0.000000 32.852200 4.576050 22.791500 6.916910 -12.545900 -0.456727 4.370560 3.107950 -33.680099 0.000000 21.232700 0.000000 -19.248100 -1.507790 28.486601 2.748829 1.029284 -3.557175 0.000000 0.000000 7.283790 11.363928 0.351104 7.645104 0.000000 0.000000 -37.255100 4.100587 8.025140 -2.411459 0.000000 0.000000 7.583730 7.042948 -7.127293 10.081525 0.000000 0.000000 -27.922500 
-19.297470 9.245284 40.021316 -175.159805 0.642748 -175.075301 2.532407 -1.236553 -6.479455 0.600086 -1.408138 3.824697 0.000000 0.000000 0.000000 -4.269642 0.399585 -12.379262 7.899714 6.379592 -53.511306 2.047530 15.045700 -5.480890 -10.668400 -3.918140 -26.347700 0.000000 -21.702200 0.000000 32.843101 4.586320 22.785601 6.879650 -12.601800 -0.498647 4.387090 3.122570 -33.649601 0.000000 21.223700 0.000000 -19.311100 -1.492340 28.486799 2.737798 1.042167 -3.558789 0.000000 0.000000 7.290030 11.370297 0.354201 7.637757 0.000000 0.000000 -37.260000 4.091085 8.019405 -2.416616 0.000000 0.000000 7.591990 7.034707 -7.114986 10.070406 0.000000 0.000000 -27.914500 
-19.298748 9.244973 40.019340 -175.170879 0.659573 -175.089555 2.488315 -1.241935 -6.525289 0.686643 -1.405024 3.951220 0.000000 0.000000 0.000000 -4.325416 0.412610 -12.473508 7.905310 6.343261 -53.470528 1.976040 15.015300 -5.522950 -10.662500 -3.858010 -26.282101 0.000000 -21.662399 0.000000 32.706299 4.570890 22.868799 6.851600 -12.601800 -0.562605 4.411240 3.072980 -33.644199 0.000000 21.263800 0.000000 -19.490400 -1.529440 28.469101 2.717403 1.027581 -3.526738 0.000000 0.000000 7.286820 11.368040 0.383718 7.635492 0.000000 0.000000 -37.248501 4.072721 8.061341 -2.412786 0.000000 0.000000 7.635980 7.074966 -7.121779 10.026788 0.000000 0.000000 -27.904700 
